
        <svg xmlns="http://www.w3.org/2000/svg" xmlns:xlink="http://www.w3.org/1999/xlink" version="1.1" width="3212.0141342756183" 
        height="742.0494699646644" viewBox="0 0 3212.0141342756183 742.0494699646644">
			<rect fill="#153009" width="3212.0141342756183" height="742.0494699646644"/>
			<g transform="scale(10.60070671378092) translate(10, 10)">
				<defs id="SvgjsDefs1910"><linearGradient id="SvgjsLinearGradient1917"><stop id="SvgjsStop1918" stop-color="#8f5e25" offset="0"></stop><stop id="SvgjsStop1919" stop-color="#fbf4a1" offset="0.5"></stop><stop id="SvgjsStop1920" stop-color="#8f5e25" offset="1"></stop></linearGradient><linearGradient id="SvgjsLinearGradient1921"><stop id="SvgjsStop1922" stop-color="#8f5e25" offset="0"></stop><stop id="SvgjsStop1923" stop-color="#fbf4a1" offset="0.5"></stop><stop id="SvgjsStop1924" stop-color="#8f5e25" offset="1"></stop></linearGradient><linearGradient id="SvgjsLinearGradient1925"><stop id="SvgjsStop1926" stop-color="#8f5e25" offset="0"></stop><stop id="SvgjsStop1927" stop-color="#fbf4a1" offset="0.5"></stop><stop id="SvgjsStop1928" stop-color="#8f5e25" offset="1"></stop></linearGradient></defs><g id="SvgjsG1911" featureKey="symbolFeature-0" transform="matrix(0.4294961480813042,0,0,0.4294961480813042,-7.7670081846161185,3.525433030809251)" fill="url(#SvgjsLinearGradient1917)"><g xmlns="http://www.w3.org/2000/svg"><path fill="url(#SvgjsLinearGradient1917)" d="M75.831,81.262c-0.461,4.555-4.121,7.827-8.179,7.309l-34.53-4.418c-4.055-0.521-6.968-4.632-6.507-9.187   l6.035-59.515c0.464-4.555,4.123-7.826,8.182-7.307l34.529,4.417c4.057,0.52,6.969,4.632,6.506,9.187L75.831,81.262z"></path><path fill="url(#SvgjsLinearGradient1917)" d="M28.725,87.08c-4.055-0.519-6.969-4.632-6.508-9.187l6.036-59.514c0.108-1.073,0.401-2.072,0.829-2.969   h-3.607c-4.083,0-7.391,3.716-7.391,8.301v59.896c0,4.586,3.308,8.302,7.391,8.302h34.754c0.866,0,1.693-0.177,2.467-0.484   L28.725,87.08z"></path></g></g><g id="SvgjsG1912" featureKey="textGroupContainer" transform="matrix(1,0,0,1,282,0)" fill="url(#SvgjsLinearGradient1921)"><rect xmlns="http://www.w3.org/2000/svg" y="0" height="1" width="1" opacity="0"></rect><rect xmlns="http://www.w3.org/2000/svg" y="0" x="-235" width="3" height="50"></rect></g><g id="SvgjsG1913" featureKey="nameFeature-0" transform="matrix(0.5660964901862126,0,0,0.5660964901862126,64.98231398923603,7.593588915786496)" fill="url(#SvgjsLinearGradient1925)"><path d="M8.36 27.28 c2.4 -1.44 1.4 -5.56 -1 -2.16 c-2.2 3.12 -3.44 12.88 0.16 13.08 c3 0.2 4.88 -3.48 5.56 -5.96 c0.04 -0.04 1.64 0.32 1.48 0.92 c-0.84 3.12 -2.16 5.64 -5.2 6.68 c-3.2 1.08 -7.64 -0.2 -8.84 -3.52 c-1.32 -3.72 0.12 -10.96 3.28 -13.6 c0.88 -0.72 2 -1.12 3.48 -1.08 c2.88 0.04 4.6 2.32 3.68 5.04 c-0.76 2.2 -3.16 0.92 -2.6 0.6 z M24.224 22.88 c-0.04 -1.28 5.32 -0.88 4.96 1.8 c-0.36 2.88 -2.48 9.72 -1.28 12.4 c0.68 1.48 2.72 0.08 4.16 -4.84 c0 -0.04 1.64 0.24 1.44 1.04 c-1 3.6 -2.36 5.56 -4.24 6.32 c-2.16 0.88 -4.88 0.12 -5.88 -2.12 c-0.2 -0.4 -0.32 -0.92 -0.44 -1.44 c-0.52 1.08 -1.12 2 -1.8 2.72 c-0.36 0.4 -0.76 0.68 -1.2 0.84 c-2.16 0.88 -4.84 0.12 -5.88 -2.12 c-1.68 -3.68 0.56 -13.16 4.2 -14.96 l0.36 -0.12 c1.16 -0.4 3.64 -0.32 4.96 1.16 c0.2 0.2 0.36 0.44 0.52 0.72 c0.08 -0.56 0.12 -1 0.12 -1.4 l0 0 z M20.704 36.56 c2 -4.28 2.76 -8.48 2.36 -10.68 c-0.4 -2.28 -1.96 -1.52 -2.76 0.28 c-1.48 3.16 -2.8 8.48 -1.68 10.92 c0.52 1.24 1.28 0.8 2.08 -0.52 z M34.168 26.04 c-1.12 -0.76 -1.6 -3.04 -1.08 -4.32 c0.92 -2.24 4.68 -1.88 4.36 -0.44 c-0.72 3.44 1.28 4.32 2.12 2.12 c0.52 -1 5.2 0.28 4.88 2.8 c-0.2 1.56 -2.8 11.08 -0.4 11.48 c0.92 0.16 2.4 -1.56 3.52 -5.4 c0.04 -0.2 0.96 0.4 1.52 0.64 c-1 3.84 -2.4 5.96 -4.32 6.72 c-2.16 0.88 -4.88 0.12 -5.88 -2.12 c-1.32 -2.84 -0.12 -7.96 0.48 -11.6 c-0.6 0.68 -1.96 1.12 -3.48 0.8 c-0.24 1.2 -1.04 4.36 -1.84 6.88 c-0.4 1.32 -2.04 0.72 -1.92 0.4 c1 -2.64 1.68 -6.24 2.04 -7.96 z M53.111999999999995 37.08 c0.52 1.24 1.28 0.8 2.08 -0.56 c2 -4.24 2.76 -8.44 2.36 -10.68 s-1.96 -1.48 -2.76 0.32 c-1.48 3.16 -2.8 8.48 -1.68 10.92 z M60.391999999999996 10.239999999999998 c-0.04 -1.28 5.44 -0.84 5.44 1.84 c-0.04 5.8 -5.24 20.84 -3.4 25 c0.68 1.48 2.72 0.08 4.16 -4.84 c0 0 1.6 0.36 1.48 0.92 c-1 3.68 -2.4 5.68 -4.28 6.44 c-2.16 0.88 -4.88 0.12 -5.88 -2.12 c-0.2 -0.4 -0.36 -0.92 -0.44 -1.52 l-0.04 0.08 c-0.52 1.08 -1.12 2 -1.8 2.72 c-0.36 0.4 -0.76 0.68 -1.2 0.84 c-2.16 0.88 -4.84 0.12 -5.88 -2.12 c-1.68 -3.68 0.56 -13.16 4.2 -14.96 l0.36 -0.12 c1.16 -0.4 3.64 -0.32 4.96 1.16 c0.12 0.16 0.28 0.32 0.4 0.48 c0.88 -5.16 2 -10.44 1.92 -13.8 z M78.656 34.56 c0.08 0.72 0.08 1.36 -0.04 1.96 c1.16 -0.8 2.48 -2.32 2.92 -4.24 c0.04 -0.2 1.64 0.56 1.44 1.08 c-0.8 2.2 -2.2 3.76 -3.68 4.8 c-2.08 1.4 -5.08 2.76 -7.48 1.44 c-1.48 -0.8 -2.48 -2.44 -2.16 -4.96 c0.16 -1.24 2.16 -1.36 1.96 -0.48 c-1 4.16 2.04 5.24 2.28 2.88 c0.36 -3.48 -3.32 -7.72 -2.16 -12.08 c-0.84 2.36 -2.2 5.92 -3.08 8.4 c-0.64 1.76 -1.72 -0.36 -1.6 -0.68 c1.48 -3.84 3.48 -9.36 4.28 -11.4 c0.84 -2.08 7 1.2 6.16 2.68 c-2.16 4.16 0.72 6.52 1.16 10.6 z M102.864 22.88 c-0.04 -1.28 5.32 -0.88 4.96 1.8 c-0.36 2.88 -2.48 9.72 -1.28 12.4 c0.68 1.48 2.72 0.08 4.16 -4.84 c0 -0.04 1.64 0.24 1.44 1.04 c-1 3.6 -2.36 5.56 -4.24 6.32 c-2.16 0.88 -4.88 0.12 -5.88 -2.12 c-0.2 -0.4 -0.32 -0.92 -0.44 -1.44 c-0.52 1.08 -1.12 2 -1.8 2.72 c-0.36 0.4 -0.76 0.68 -1.2 0.84 c-2.16 0.88 -4.84 0.12 -5.88 -2.12 c-1.68 -3.68 0.56 -13.16 4.2 -14.96 l0.36 -0.12 c1.16 -0.4 3.64 -0.32 4.96 1.16 c0.2 0.2 0.36 0.44 0.52 0.72 c0.08 -0.56 0.12 -1 0.12 -1.4 l0 0 z M99.344 36.56 c2 -4.28 2.76 -8.48 2.36 -10.68 c-0.4 -2.28 -1.96 -1.52 -2.76 0.28 c-1.48 3.16 -2.8 8.48 -1.68 10.92 c0.52 1.24 1.28 0.8 2.08 -0.52 z M116.208 36.88 c0.52 1.2 1.28 0.76 2.08 -0.56 c2 -4.28 2.76 -8.44 2.36 -10.68 s-1.96 -1.52 -2.76 0.28 c-1.48 3.16 -2.8 8.48 -1.68 10.96 z M119.208 39.84 c0.2 -0.76 0.4 -1.68 0.64 -2.76 c-0.36 0.52 -0.72 1.04 -1.12 1.44 c-0.36 0.4 -0.76 0.72 -1.2 0.88 c-2.16 0.88 -4.84 0.12 -5.88 -2.12 c-1.68 -3.72 0.56 -13.2 4.2 -14.96 c0.12 -0.04 0.24 -0.12 0.36 -0.12 c1.16 -0.4 3.64 -0.36 4.96 1.12 c0.2 0.24 0.36 0.48 0.52 0.76 c0.04 0.04 0.08 0.08 0.08 0.12 c0.04 -0.56 0.04 -1.08 0.04 -1.52 c-0.04 -1.28 5.32 -0.88 5 1.8 c-0.52 4.44 -1.76 9.4 -2.8 13.84 c2.24 -1.16 4.2 -3.12 5.04 -5.72 c0.24 -0.72 1.84 -0.32 1.6 0.44 c-1 3.24 -4.28 6.28 -7.16 7.32 c-1.44 6.12 -3.68 12.6 -6.76 12.64 c-3.16 0.04 -5.72 -2.4 -5.04 -5.76 c0.76 -3.6 4.16 -6.12 7.52 -7.4 z M118.768 41.92 c-3.56 1.6 -5.08 3.72 -5.44 5.44 c-0.6 2.6 1.56 4.16 3.32 1.08 c0.76 -1.32 1.6 -4.36 2.12 -6.52 z M140.31199999999998 22.88 c-0.04 -1.28 5.32 -0.88 4.96 1.8 c-0.36 2.88 -2.48 9.72 -1.28 12.4 c0.68 1.48 2.72 0.08 4.16 -4.84 c0 -0.04 1.64 0.24 1.44 1.04 c-1 3.6 -2.36 5.56 -4.24 6.32 c-2.16 0.88 -4.88 0.12 -5.88 -2.12 c-0.2 -0.4 -0.32 -0.92 -0.44 -1.44 c-0.52 1.08 -1.12 2 -1.8 2.72 c-0.36 0.4 -0.76 0.68 -1.2 0.84 c-2.16 0.88 -4.84 0.12 -5.88 -2.12 c-1.68 -3.68 0.56 -13.16 4.2 -14.96 l0.36 -0.12 c1.16 -0.4 3.64 -0.32 4.96 1.16 c0.2 0.2 0.36 0.44 0.52 0.72 c0.08 -0.56 0.12 -1 0.12 -1.4 l0 0 z M136.792 36.56 c2 -4.28 2.76 -8.48 2.36 -10.68 c-0.4 -2.28 -1.96 -1.52 -2.76 0.28 c-1.48 3.16 -2.8 8.48 -1.68 10.92 c0.52 1.24 1.28 0.8 2.08 -0.52 z M149.93599999999998 22.88 c-0.04 -1.28 5.32 -0.88 4.96 1.8 c-0.36 2.88 -2.44 9.72 -1.24 12.4 c0.64 1.48 2.72 0.08 4.12 -4.84 c0 0 1.64 0.36 1.48 0.88 c-1 3.72 -2.36 5.72 -4.24 6.48 c-2.2 0.88 -4.88 0.12 -5.92 -2.12 c-1.68 -3.72 0.92 -11.84 0.84 -14.6 z M151.576 10.879999999999999 c-0.4 -2 5.92 -1.68 5.48 1.12 c-0.24 1.4 -0.88 3.64 -1.6 5.64 c-1.2 3.28 -4.08 2.44 -3.96 1.8 c0.52 -2.48 0.44 -6.72 0.08 -8.56 z M164.59999999999997 24.68 c-0.16 1.32 -0.44 2.88 -0.76 4.52 c0.88 -2.32 2.32 -5.36 3.56 -6.36 c0.68 -0.52 1.48 -0.76 2.32 -0.72 c2.8 0.12 4.04 2 3.52 4.68 c-0.48 2.52 -1.92 7.96 -0.88 10.28 c0.68 1.48 2.72 0.08 4.16 -4.84 c0 0 1.6 0.36 1.48 0.88 c-1 3.68 -2.4 5.72 -4.28 6.48 c-2.16 0.88 -4.88 0.12 -5.88 -2.12 c-1.68 -3.64 0.28 -8.24 0.6 -12.04 c0.04 -0.6 -0.04 -0.96 -0.4 -0.6 c-2.56 2.48 -4.92 11.12 -6.04 14.64 l0 0.16 c0 0.72 -4.28 0.76 -4 -3.28 s1.32 -9.56 1.64 -13.48 c0.08 -1.28 5.32 -0.88 4.96 1.8 z M188.58399999999997 34.56 c0.08 0.72 0.08 1.36 -0.04 1.96 c1.16 -0.8 2.48 -2.32 2.92 -4.24 c0.04 -0.2 1.64 0.56 1.44 1.08 c-0.8 2.2 -2.2 3.76 -3.68 4.8 c-2.08 1.4 -5.08 2.76 -7.48 1.44 c-1.48 -0.8 -2.48 -2.44 -2.16 -4.96 c0.16 -1.24 2.16 -1.36 1.96 -0.48 c-1 4.16 2.04 5.24 2.28 2.88 c0.36 -3.48 -3.32 -7.72 -2.16 -12.08 c-0.84 2.36 -2.2 5.92 -3.08 8.4 c-0.64 1.76 -1.72 -0.36 -1.6 -0.68 c1.48 -3.84 3.48 -9.36 4.28 -11.4 c0.84 -2.08 7 1.2 6.16 2.68 c-2.16 4.16 0.72 6.52 1.16 10.6 z M194.56799999999996 13.96 c0.04 -1.28 5.68 -0.64 5.4 2.04 c-0.16 1.68 -0.76 4.2 -1.36 6.88 c2.16 -0.2 3.88 -0.4 4.16 -0.52 c0.84 -0.4 0.48 2.44 -0.8 2.52 c-0.24 0 -1.88 0.08 -3.88 0.16 c-1.08 4.8 -2.04 9.8 -1.04 12.04 c0.64 1.48 2.72 0.08 4.12 -4.84 c0 -0.04 1.64 0.32 1.48 0.92 c-1 3.68 -2.36 5.68 -4.24 6.44 c-2.2 0.88 -4.88 0.12 -5.92 -2.08 c-1.12 -2.48 -0.48 -7.36 0.36 -12.32 c-1.56 0.04 -2.76 0.08 -3.04 0.04 c-1.56 -0.2 -1.24 -1.56 -0.96 -1.56 c0.4 0 2.16 -0.16 4.32 -0.32 c0.64 -3.6 1.32 -7.08 1.4 -9.4 z M214.97599999999997 10.280000000000001 c0 -1.28 5.48 -0.88 5.4 1.84 c-0.08 4.72 -1.84 10.4 -3.32 19.16 c0.88 -2.24 2.44 -7.04 4.16 -8.44 c0.64 -0.52 1.48 -0.72 2.32 -0.68 c2.76 0.12 4.04 1.96 3.52 4.68 c-0.48 2.48 -1.92 7.96 -0.88 10.24 c0.64 1.52 2.72 0.12 4.12 -4.84 c0 0 1.64 0.36 1.48 0.88 c-1 3.72 -2.36 5.76 -4.24 6.52 c-2.2 0.88 -4.88 0.12 -5.92 -2.12 c-1.64 -3.68 0.28 -8.28 0.64 -12.04 c0.04 -0.6 -0.04 -1 -0.4 -0.64 c-2.04 2 -5.08 11.24 -5.88 14.76 c-0.28 1.12 -4.2 0.16 -4.2 -3.4 c-0.04 -7.72 3.28 -20.04 3.2 -25.92 z M232.11999999999995 22.88 c-0.04 -1.28 5.32 -0.88 4.96 1.8 c-0.36 2.88 -2.44 9.72 -1.24 12.4 c1.44 3.24 3.8 -5.88 4.56 -9.6 c0.36 -1.92 0.68 -3.6 0.64 -4.6 c-0.04 -1.28 5.32 -0.88 4.96 1.8 c-0.36 2.88 -2.44 9.72 -1.24 12.4 c0.64 1.48 2.72 0.08 4.12 -4.84 c0 0 1.64 0.36 1.48 0.88 c-1 3.72 -2.36 5.72 -4.24 6.48 c-2.2 0.88 -4.88 0.12 -5.92 -2.12 c-0.12 -0.32 -0.24 -0.68 -0.36 -1.08 c-0.72 1.56 -1.6 2.8 -2.64 3.2 c-2.2 0.88 -4.88 0.12 -5.92 -2.12 c-1.68 -3.72 0.92 -11.84 0.84 -14.6 z M255.70399999999995 24.68 c-0.16 1.32 -0.44 2.88 -0.76 4.52 c0.88 -2.32 2.36 -5.36 3.56 -6.36 c0.68 -0.52 1.48 -0.76 2.32 -0.72 c2.8 0.12 4.04 2 3.52 4.68 c0 0.12 -0.04 0.24 -0.04 0.36 c0.8 -1.8 1.8 -3.6 2.72 -4.32 c0.64 -0.52 1.44 -0.76 2.28 -0.72 c2.8 0.12 4.04 2 3.56 4.68 c-0.48 2.52 -1.92 7.96 -0.92 10.28 c0.68 1.48 2.72 0.08 4.16 -4.84 c0 0 1.6 0.36 1.48 0.88 c-1 3.72 -2.36 5.72 -4.28 6.48 c-2.16 0.88 -4.88 0.12 -5.88 -2.12 c-1.68 -3.64 0.28 -8.24 0.6 -12.04 c0.08 -0.6 0 -0.96 -0.36 -0.6 c-1.8 1.72 -3.44 6.36 -4.68 10.2 c-0.24 1.2 -0.48 2.44 -0.8 3.68 c-0.72 2.84 -4.04 0 -4.04 -1.48 c0 -4.28 1.04 -7.72 1.4 -11.8 c0.04 -0.6 -0.04 -0.96 -0.4 -0.6 c-2.56 2.48 -4.88 11.12 -6.04 14.64 l0 0.16 c0 0.72 -4.28 0.8 -4 -3.28 c0.28 -4.04 1.32 -9.56 1.64 -13.48 c0.08 -1.28 5.32 -0.88 4.96 1.8 z M287.24799999999993 22.88 c-0.04 -1.28 5.32 -0.88 4.96 1.8 c-0.36 2.88 -2.48 9.72 -1.28 12.4 c0.68 1.48 2.72 0.08 4.16 -4.84 c0 -0.04 1.64 0.24 1.44 1.04 c-1 3.6 -2.36 5.56 -4.24 6.32 c-2.16 0.88 -4.88 0.12 -5.88 -2.12 c-0.2 -0.4 -0.32 -0.92 -0.44 -1.44 c-0.52 1.08 -1.12 2 -1.8 2.72 c-0.36 0.4 -0.76 0.68 -1.2 0.84 c-2.16 0.88 -4.84 0.12 -5.88 -2.12 c-1.68 -3.68 0.56 -13.16 4.2 -14.96 l0.36 -0.12 c1.16 -0.4 3.64 -0.32 4.96 1.16 c0.2 0.2 0.36 0.44 0.52 0.72 c0.08 -0.56 0.12 -1 0.12 -1.4 l0 0 z M283.72799999999995 36.56 c2 -4.28 2.76 -8.48 2.36 -10.68 c-0.4 -2.28 -1.96 -1.52 -2.76 0.28 c-1.48 3.16 -2.8 8.48 -1.68 10.92 c0.52 1.24 1.28 0.8 2.08 -0.52 z M301.87199999999996 24.68 c-0.16 1.32 -0.44 2.88 -0.76 4.52 c0.88 -2.32 2.32 -5.36 3.56 -6.36 c0.68 -0.52 1.48 -0.76 2.32 -0.72 c2.8 0.12 4.04 2 3.52 4.68 c-0.48 2.52 -1.92 7.96 -0.88 10.28 c0.68 1.48 2.72 0.08 4.16 -4.84 c0 0 1.6 0.36 1.48 0.88 c-1 3.68 -2.4 5.72 -4.28 6.48 c-2.16 0.88 -4.88 0.12 -5.88 -2.12 c-1.68 -3.64 0.28 -8.24 0.6 -12.04 c0.04 -0.6 -0.04 -0.96 -0.4 -0.6 c-2.56 2.48 -4.92 11.12 -6.04 14.64 l0 0.16 c0 0.72 -4.28 0.76 -4 -3.28 s1.32 -9.56 1.64 -13.48 c0.08 -1.28 5.32 -0.88 4.96 1.8 z M315.616 22.88 c-0.04 -1.28 5.32 -0.88 4.96 1.8 c-0.36 2.88 -2.44 9.72 -1.24 12.4 c0.64 1.48 2.72 0.08 4.12 -4.84 c0 0 1.64 0.36 1.48 0.88 c-1 3.72 -2.36 5.72 -4.24 6.48 c-2.2 0.88 -4.88 0.12 -5.92 -2.12 c-1.68 -3.72 0.92 -11.84 0.84 -14.6 z M317.256 10.879999999999999 c-0.4 -2 5.92 -1.68 5.48 1.12 c-0.24 1.4 -0.88 3.64 -1.6 5.64 c-1.2 3.28 -4.08 2.44 -3.96 1.8 c0.52 -2.48 0.44 -6.72 0.08 -8.56 z M326.59999999999997 13.96 c0.04 -1.28 5.68 -0.64 5.4 2.04 c-0.16 1.68 -0.76 4.2 -1.36 6.88 c2.16 -0.2 3.88 -0.4 4.16 -0.52 c0.84 -0.4 0.48 2.44 -0.8 2.52 c-0.24 0 -1.88 0.08 -3.88 0.16 c-1.08 4.8 -2.04 9.8 -1.04 12.04 c0.64 1.48 2.72 0.08 4.12 -4.84 c0 -0.04 1.64 0.32 1.48 0.92 c-1 3.68 -2.36 5.68 -4.24 6.44 c-2.2 0.88 -4.88 0.12 -5.92 -2.08 c-1.12 -2.48 -0.48 -7.36 0.36 -12.32 c-1.56 0.04 -2.76 0.08 -3.04 0.04 c-1.56 -0.2 -1.24 -1.56 -0.96 -1.56 c0.4 0 2.16 -0.16 4.32 -0.32 c0.64 -3.6 1.32 -7.08 1.4 -9.4 z M342.50399999999996 36.92 c-0.4 0.64 -0.8 1.24 -1.28 1.76 c-0.36 0.4 -0.76 0.68 -1.16 0.84 c-2.2 0.88 -4.88 0.12 -5.92 -2.12 c-1.68 -3.72 0.92 -11.84 0.84 -14.6 c-0.04 -1.28 5.32 -0.88 4.96 1.8 c-0.36 2.88 -2.44 9.68 -1.24 12.4 c1.52 3.4 4.88 -5.52 5.56 -11 c0.12 -1.24 0.2 -2.36 0.16 -3.2 c-0.04 -1.28 5.32 -0.88 5 1.8 c-0.28 2.32 -0.72 4.72 -1.24 7.12 c-0.48 2.24 -1 4.44 -1.56 6.72 c2.32 -1.16 4.36 -3.2 5.12 -5.96 c0.16 -0.56 1.8 -0.16 1.56 0.68 c-1.04 3.24 -4.32 6.32 -7.16 7.32 c-0.32 1.28 -0.64 2.52 -1 3.76 c-1.44 4.76 -3.36 8.88 -5.8 8.88 c-3.16 0.04 -5.72 -2.36 -5.04 -5.72 c0.76 -3.64 4.16 -6.16 7.56 -7.4 c0.16 -0.84 0.4 -1.88 0.64 -3.08 z M335.94399999999996 47.480000000000004 c-0.56 2.64 1.6 4.16 3.32 1.12 c0.76 -1.36 1.6 -4.36 2.12 -6.56 c-3.56 1.6 -5.08 3.76 -5.44 5.44 z"></path></g>
			</g>
		</svg>
	